<?xml version="1.0" encoding="UTF-8"?>
<svg id="Layer_2" data-name="Layer 2" xmlns="http://www.w3.org/2000/svg" viewBox="0 0 179.19 187.29">
  <g id="Layer_1-2" data-name="Layer 1">
    <g id="nylRA3">
      <path d="M28.09,160.92c-2.38-24.74-20.54-39.83-25.74-62.82C-7.85,53.04,15.64,9.13,62.71,1.51c34.85-5.64,72.98,3.97,88.62,38.16,5.07,11.08,5.04,22.09,8.9,31.9,4.33,10.99,14.92,22.25,18.93,33.88.78,8.79-14.84,10.69-19.56,15.83-.9,14.09,2.75,27.18-6.6,39.17-9.6,12.32-23.37,10.98-37.34,9.93v16.92H28.09c-.59-8.51.81-17.99,0-26.37ZM86.51,48.12c-1.71.48-2.12,1.93-2.66,3.38-5.92,15.65-6.18,38.5-11.93,54.84-.87,3.92,3.25,7.11,6.53,4.43,3.47-2.85,10.04-49.84,13.29-57.45.64-3.3-1.84-6.15-5.23-5.19ZM52.69,60.07c-1.23.33-15.78,18.85-15.56,20.11,4.82,4.29,9.25,14.39,13.77,18.13,2.21,1.82,5.15,2.25,6.57-.57,2.19-4.34-8.07-13.58-10.4-17.56-.31-1.76,9.92-11.97,10.69-15.04.86-3.42-1.83-5.96-5.08-5.07ZM108.41,60.07c-8.3,2.31,6.08,15.88,8.16,19.41.26,1.47-19.29,21.5-6.44,20.3,3.33-.31,13.68-16.82,16.39-20.3-4.82-4.28-9.25-14.4-13.77-18.13-1.47-1.21-2.3-1.85-4.34-1.28Z" fill="#fff"/>
    </g>
  </g>
</svg>